# xmcd CD database file
#
# Track frame offsets:
#	150
#	9482
#	30567
#	47196
#	59938
#	80619
#	95638
#	111509
#	130631
#	145325
#	162227
#	181304
#	195165
#	202931
#	217980
#	236435
#	254718
#
# Disc length: 3751 seconds
#
# Revision: 0
# Processed by: cddbd v1.5.2PL0 Copyright (c) Steve Scherf et al.
# Submitted via: jetAudio 7
#
DISCID=f20ea511
DTITLE=孫敬凡 - 夢•遊記
DYEAR=1900
DGENRE=New Age
TTITLE0=序曲-初夏荼靡
TTITLE1=漫游歌
TTITLE2=古都
TTITLE3=千年繁華
TTITLE4=似水流年
TTITLE5=煙花
TTITLE6=夢遊記
TTITLE7=南庄桐花雨
TTITLE8=櫻吹雪
TTITLE9=秦樓月
TTITLE10=一千零一夜
TTITLE11=銀鞍白馬
TTITLE12=冬夜，一個旅人
TTITLE13=花弄影
TTITLE14=羅生門
TTITLE15=俠客行
TTITLE16=月夜探戈
EXTD=
EXTT0=
EXTT1=
EXTT2=
EXTT3=
EXTT4=
EXTT5=
EXTT6=
EXTT7=
EXTT8=
EXTT9=
EXTT10=
EXTT11=
EXTT12=
EXTT13=
EXTT14=
EXTT15=
EXTT16=
PLAYORDER=
